<?xml version="1.0" encoding="UTF-8"?>
<svg id="Layer_2" data-name="Layer 2" xmlns="http://www.w3.org/2000/svg" viewBox="0 0 708.6 214.97">
  <path d="M700.48,99.01c.69-3.2,1.04-6.1,1.04-8.69,0-8.22-2.72-15.39-8.17-21.54-5.45-6.14-13.1-10.88-22.96-14.21-9.86-3.33-21.32-4.99-34.38-4.99-16.17,0-29.71,2.53-40.61,7.59-9.35,4.34-16.58,9.76-21.7,16.23-1.74-4.08-4.5-7.63-8.29-10.66-7.01-5.58-18.47-8.37-34.38-8.37h-176.5l-41.52,127.8h-16.09c-6.32,0-11.01-1.21-14.08-3.63-3.07-2.42-4.61-5.88-4.61-10.38,0-3.03.56-6.23,1.69-9.6l33.86-104.18H62.91L14.13,204.49h139.11l40.61-125.33h60.77l-25.31,78.1c-1.99,6.14-2.98,11.72-2.98,16.74,0,9.17,3.5,16.54,10.51,22.12,7.01,5.58,18.47,8.37,34.38,8.37h176.5l41.52-127.93h16.09c6.31,0,11.01,1.23,14.08,3.7,3.07,2.46,4.61,5.95,4.61,10.44,0,3.03-.56,6.23-1.69,9.6l-33.86,104.18h51.12l6.35-19.6c.82,1.16,1.71,2.29,2.69,3.38,5.75,6.4,13.88,11.35,24.39,14.86s22.72,5.25,36.65,5.25c16.69,0,30.7-2.46,42.04-7.4,11.33-4.93,19.72-11.39,25.17-19.4,5.45-8,8.17-16.54,8.17-25.62,0-7.87-2.06-14.44-6.16-19.72-4.11-5.27-9.04-9.45-14.79-12.52-5.75-3.07-13.21-6.34-22.38-9.8-6.66-2.51-11.87-4.67-15.63-6.49-3.76-1.82-6.9-4.04-9.41-6.68-2.51-2.64-3.76-5.73-3.76-9.28,0-3.2.93-6.12,2.79-8.76,1.86-2.64,4.43-4.71,7.72-6.23,3.29-1.51,6.96-2.27,11.03-2.27,5.97,0,10.66,1.51,14.08,4.54,3.42,3.03,5.13,7.27,5.13,12.71,0,2.08-.35,4.59-1.04,7.53h47.87ZM619.59,149.94c3.59,1.77,6.57,3.96,8.95,6.55,2.38,2.6,3.57,5.67,3.57,9.21s-.95,6.42-2.85,9.15c-1.9,2.72-4.54,4.87-7.91,6.42-3.37,1.56-7.18,2.34-11.42,2.34-6.14,0-11.01-1.51-14.6-4.54-3.59-3.03-5.38-7.27-5.38-12.72,0-2.34.39-4.93,1.17-7.78h-36.65l13-40.12c.6,1.07,1.24,2.11,1.98,3.08,3.89,5.15,8.54,9.21,13.95,12.2,5.4,2.98,12.43,6.21,21.08,9.67,6.49,2.59,11.53,4.78,15.12,6.55Z"/>
  <path d="M420.54,40.85c2.23,1.24,4.78,1.86,7.63,1.86,3.23,0,6.38-.79,9.45-2.38,3.07-1.59,5.68-3.76,7.84-6.5,2.15-2.75,3.55-5.76,4.2-9.05.27-1.35.4-2.53.4-3.55,0-2.69-.62-5.13-1.86-7.31-1.24-2.18-2.96-3.89-5.17-5.13-2.21-1.24-4.74-1.86-7.59-1.86-3.29,0-6.46.8-9.53,2.38-3.07,1.59-5.68,3.76-7.84,6.5-2.15,2.75-3.55,5.74-4.2,8.97-.27,1.35-.4,2.56-.4,3.64,0,2.75.62,5.2,1.86,7.35,1.24,2.15,2.98,3.85,5.21,5.09Z"/>
</svg>
